<svg width="300" height="300" enable-background="new 130.3515625 177.4335938 800 151.6611328" overflow="visible" version="1.1" viewBox="130.35 177.43 300 300" xml:space="preserve" xmlns="http://www.w3.org/2000/svg">
<path d="m420.93 272.27c-5.2009 0.51386-26.852 5.3644-34.129 6.9242-7.7923 2.0736-78.984 57.075-83.661 70.581-1.0368 4.6741-1.5565 11.866-1.5565 18.624l-0.52165 10.916c0 7.7884 2.1638 20.349 3.2 27.102 4.6806 1.0433 38.555 0.13235 44.788 1.1679l-0.7669 13.97c-6.0911-0.4438-49.106-0.33998-73.68-0.33998-12.475 0-52.576 1.3755-64.897 1.0044l2.3292-13.285c6.7561-0.52424 34.729 1.2068 40.879-5.2839 3.0546-3.2207 2.0814-6.6724 2.0814-25.376v-8.8317c0-4.1576 0-11.956-1.0426-19.233-2.5966-7.7962-65.301-86.09-81.409-98.558-4.6806-1.5572-33.99-4.4885-41.264-6.0508l-0.36204-11.968c3.6288-1.8193 36.221 0.44249 67.849-0.72797 20.787-0.76819 68.215 0 74.067 0.69684l-1.4994 10.547c-6.2338 1.561-36.266 2.1385-44.062 4.2147 20.268 30.139 52.312 68.94 62.707 84.011 5.7193-8.3126 55.954-42.874 57.512-54.825-7.7975-1.565-33.607-5.2788-37.766-5.2788l-2.4687-13.607c7.0753-1.1069 44.278 0 62.774 0 15.962 0 50.07 0 59.762 0.79416l-8.8628 12.813" fill="#592c71"/>
</svg>
